HIERARCHY
ROOT Hips
{
	OFFSET	0.00	0.00	0.00
	CHANNELS 6 Xposition Yposition Zposition Zrotation Xrotation Yrotation
	JOINT LeftUpLeg
	{
		OFFSET	 0.126116	-0.014019	-0.065224
		CHANNELS 3 Zrotation Xrotation Yrotation
		JOINT LeftLeg
		{
			OFFSET	 0.000000	 0.000000	 0.569914
			CHANNELS 3 Zrotation Xrotation Yrotation
			JOINT LeftFoot
			{
				OFFSET	 0.000000	 0.000000	 0.544423
				CHANNELS 3 Zrotation Xrotation Yrotation
				JOINT LeftToeBase
				{
					OFFSET	 0.000000	 0.000000	 0.207117
					CHANNELS 3 Zrotation Xrotation Yrotation
					End Site
					{
						OFFSET	 0.000000	 0.000000	 0.207117
					}
				}
			}
		}
	}
	JOINT RightUpLeg
	{
		OFFSET	-0.124023	-0.008373	-0.065224
		CHANNELS 3 Zrotation Xrotation Yrotation
		JOINT RightLeg
		{
			OFFSET	 0.000000	 0.000000	 0.570047
			CHANNELS 3 Zrotation Xrotation Yrotation
			JOINT RightFoot
			{
				OFFSET	 0.000000	 0.000000	 0.544354
				CHANNELS 3 Zrotation Xrotation Yrotation
				JOINT RightToeBase
				{
					OFFSET	 0.000000	 0.000000	 0.207540
					CHANNELS 3 Zrotation Xrotation Yrotation
					End Site
					{
						OFFSET	 0.000000	 0.000000	 0.207540
					}
				}
			}
		}
	}
	JOINT Spine
	{
		OFFSET	 0.000184	-0.007763	 0.117403
		CHANNELS 3 Zrotation Xrotation Yrotation
		JOINT Spine1
		{
			OFFSET	 0.000000	 0.000000	 0.137269
			CHANNELS 3 Zrotation Xrotation Yrotation
			JOINT Spine2
			{
				OFFSET	 0.000000	 0.000000	 0.156879
				CHANNELS 3 Zrotation Xrotation Yrotation
				JOINT LeftShoulder
				{
					OFFSET	 0.080501	-0.002496	 0.160144
					CHANNELS 3 Zrotation Xrotation Yrotation
					JOINT LeftArm
					{
						OFFSET	 0.000000	 0.000000	 0.164363
						CHANNELS 3 Zrotation Xrotation Yrotation
						JOINT LeftForeArm
						{
							OFFSET	 0.000000	 0.000000	 0.364576
							CHANNELS 3 Zrotation Xrotation Yrotation
							JOINT LeftHand
							{
								OFFSET	 0.000000	 0.000000	 0.360812
								CHANNELS 3 Zrotation Xrotation Yrotation
								JOINT LeftHandIndex1
								{
									OFFSET	 0.000000	 0.000000	 0.086006
									CHANNELS 3 Zrotation Xrotation Yrotation
									JOINT LeftHandIndex2
									{
										OFFSET	 0.000000	 0.000000	 0.047236
										CHANNELS 3 Zrotation Xrotation Yrotation
										JOINT LeftHandIndex3
										{
											OFFSET	-0.004284	-0.000551	 0.038166
											CHANNELS 3 Zrotation Xrotation Yrotation
											End Site
											{
												OFFSET	-0.004284	-0.000551	 0.038166
											}
										}
									}
								}
							}
						}
					}
				}
				JOINT Neck
				{
					OFFSET	 0.000000	 0.000000	 0.176489
					CHANNELS 3 Zrotation Xrotation Yrotation
					JOINT Head
					{
						OFFSET	 0.000000	-0.001747	 0.077940
						CHANNELS 3 Zrotation Xrotation Yrotation
						End Site
						{
							OFFSET	 0.000000	-0.001747	 0.077940
						}
					}
				}
				JOINT RightShoulder
				{
					OFFSET	-0.080363	 0.000306	 0.159706
					CHANNELS 3 Zrotation Xrotation Yrotation
					JOINT RightArm
					{
						OFFSET	 0.000000	 0.000000	 0.164196
						CHANNELS 3 Zrotation Xrotation Yrotation
						JOINT RightForeArm
						{
							OFFSET	 0.000000	 0.000000	 0.365611
							CHANNELS 3 Zrotation Xrotation Yrotation
							JOINT RightHand
							{
								OFFSET	 0.000000	 0.000000	 0.360648
								CHANNELS 3 Zrotation Xrotation Yrotation
								JOINT RightHandIndex1
								{
									OFFSET	 0.000000	 0.000000	 0.069977
									CHANNELS 3 Zrotation Xrotation Yrotation
									JOINT RightHandIndex2
									{
										OFFSET	 0.000000	 0.000000	 0.052305
										CHANNELS 3 Zrotation Xrotation Yrotation
										JOINT RightHandIndex3
										{
											OFFSET	 0.009002	-0.000782	 0.042196
											CHANNELS 3 Zrotation Xrotation Yrotation
											End Site
											{
												OFFSET	 0.009002	-0.000782	 0.042196
											}
										}
									}
								}
							}
						}
					}
				}
			}
		}
	}
}
MOTION
Frames:    11
Frame Time: 0.03333334
 0.013679	 0.054177	 1.201726	 4.489796	-1.352882	-2.735723	 3.218305	-11.869830	-172.644900	 0.700923	-39.142850	 0.175538	 54.298420	 81.331390	-58.200290	-2.370475	 31.434310	-0.065839	-7.351440	-30.246170	-175.700500	 10.434570	-51.810550	 8.839797	 12.880060	 73.361040	-8.454974	 2.358351	 33.091480	 0.105343	-6.663656	 8.703362	 2.144567	-2.083273	 2.049277	-1.532034	 3.326568	-1.943362	 1.638767	-93.860640	 58.898930	 175.562100	 15.104170	 35.136040	-39.564110	-1.118816	-0.052271	-0.617451	-0.993202	-19.239620	-7.108011	-4.870543	 19.223310	-2.787623	-3.882746	 21.457200	 2.203990	-4.807208	 5.557973	 0.146239	-0.099763	-5.046641	 0.171977	 1.122033	 1.988330	 2.820710	 89.804530	 61.616190	-179.946700	-20.520150	 52.821680	 13.262610	-1.302598	-1.492642	 8.019754	-4.607913	-4.958361	 0.686983	 6.298312	 25.361720	-0.558006	 1.816241	 45.254400	-6.931284	 0.450837	 24.606150	 3.606681
 0.012995	 0.041106	 1.200926	 4.893011	-1.140666	-2.725235	 2.745350	-11.428520	-172.783900	 0.908990	-39.074620	 0.350638	 56.799470	 81.723340	-60.916870	-2.369779	 31.551000	-0.068478	-8.296179	-31.419380	-175.820400	 10.535370	-50.395500	 8.746939	 14.975380	 75.075790	-10.954450	 2.358750	 33.031550	 0.103957	-7.331366	 8.580664	 2.074277	-2.105276	 2.060142	-1.506571	 3.262053	-2.100931	 1.644282	-93.935170	 58.941820	 175.398000	 14.925750	 34.266100	-40.066060	-1.699276	-0.046007	-0.712130	-1.200419	-19.683500	-7.875783	-4.870216	 19.238800	-2.790160	-3.879485	 21.498910	 2.200680	-4.806449	 5.566798	 0.145725	-0.077521	-5.073191	 0.183329	 1.126525	 1.902337	 2.738946	 89.781140	 61.645280	 179.997700	-20.345670	 53.240390	 12.092680	-1.218403	-1.618915	 8.846992	-4.457416	-5.105755	 0.612698	 6.293361	 24.832490	-0.541947	 1.888402	 44.677220	-6.995700	 0.533604	 24.244010	 3.564556
 0.011889	 0.018567	 1.199563	 5.407485	-0.708712	-2.737468	 2.203530	-10.629870	-172.973300	 1.157264	-38.821910	 0.504393	 60.979480	 82.258000	-65.290190	-2.368899	 31.697630	-0.071803	-9.745414	-33.215830	-176.113100	 10.683410	-47.385170	 8.471381	 16.545890	 76.498890	-13.122720	 2.358970	 33.000550	 0.103237	-8.212182	 8.281122	 1.945313	-2.161976	 2.134828	-1.418208	 3.162083	-2.354242	 1.626366	-94.054230	 58.971940	 175.140400	 14.333120	 32.866010	-40.814830	-2.270764	-0.037979	-0.848921	-1.282669	-20.404490	-8.584198	-4.866848	 19.327690	-2.796503	-3.873094	 21.580510	 2.194185	-4.805007	 5.583807	 0.144728	-0.050610	-5.096485	 0.214636	 1.104977	 1.792923	 2.658092	 89.736830	 61.720690	 179.891800	-20.079580	 53.893470	 10.493670	-1.262077	-1.731015	 9.549132	-4.359212	-5.325418	 0.470008	 6.282547	 23.994820	-0.545412	 1.990589	 43.836830	-7.086560	 0.703921	 23.491450	 3.479228
 0.010605	-0.007210	 1.197884	 5.898239	-0.238280	-2.761892	 1.642958	-9.612182	-173.192000	 1.354075	-38.388650	 0.621870	 65.989220	 82.796960	-70.447650	-2.368057	 31.836690	-0.074956	-11.278050	-34.736090	-176.578900	 10.608270	-43.233810	 7.840048	 18.461780	 77.487920	-15.701800	 2.359051	 32.987550	 0.102940	-9.076381	 7.943582	 1.805876	-2.235720	 2.248790	-1.314633	 3.054730	-2.624769	 1.599097	-94.176460	 58.991900	 174.877100	 13.539640	 31.353260	-41.597990	-2.741060	-0.029214	-0.988267	-1.329299	-21.142680	-9.172956	-4.862547	 19.437650	-2.803733	-3.866177	 21.668700	 2.187157	-4.803453	 5.602152	 0.143652	-0.025452	-5.114799	 0.250629	 1.068792	 1.689505	 2.589025	 89.689470	 61.806590	 179.777900	-19.775230	 54.532790	 9.072622	-1.372228	-1.725647	 9.590269	-4.296581	-5.551094	 0.317456	 6.270423	 23.136580	-0.557481	 2.089435	 42.997200	-7.174020	 0.887835	 22.667550	 3.389169
 0.009528	-0.033724	 1.195917	 6.155305	 0.185833	-2.937162	 1.331786	-8.331484	-173.263600	 1.464918	-37.676000	 0.679823	 71.686990	 83.259690	-76.236430	-2.366803	 32.039130	-0.079567	-12.076640	-35.733020	-176.851000	 10.426860	-38.330830	 6.991387	 17.511900	 76.344810	-15.405430	 2.360180	 32.821540	 0.099078	-9.760149	 7.562718	 1.825938	-2.296785	 2.526784	-1.199627	 2.967144	-2.907492	 1.550614	-94.276200	 58.990140	 174.664700	 12.635750	 29.918410	-42.396980	-3.452361	-0.017088	-1.121233	-1.568574	-22.020280	-9.117444	-4.854505	 19.621960	-2.811589	-3.857311	 21.781370	 2.178149	-4.798746	 5.657636	 0.140401	-0.013950	-5.148781	 0.283711	 1.008002	 1.598267	 2.571723	 89.622930	 61.886050	 179.617300	-19.395360	 55.051380	 8.002227	-1.715623	-1.629837	 8.993395	-4.442585	-5.736586	-0.110698	 6.254545	 22.185870	-0.588305	 2.177819	 42.223530	-7.251848	 1.102713	 21.690270	 3.286748
 0.008322	-0.060810	 1.193447	 6.381018	 0.609372	-3.142890	 1.047763	-6.964624	-173.320300	 1.561692	-36.851750	 0.725148	 77.954220	 83.662320	-82.583200	-2.365437	 32.256650	-0.084533	-12.757680	-36.264850	-177.143100	 10.233170	-32.834570	 6.011575	 16.509410	 74.779400	-15.034670	 2.361473	 32.626170	 0.094565	-10.431980	 7.166852	 1.871062	-2.356619	 2.800016	-1.082379	 2.873843	-3.180813	 1.495381	-94.374370	 58.984810	 174.456200	 11.784520	 28.553860	-43.148690	-4.213978	-0.002798	-1.259802	-1.855949	-22.940880	-8.956278	-4.845638	 19.822820	-2.819738	-3.847901	 21.900640	 2.168584	-4.793393	 5.720594	 0.136705	-0.004503	-5.186110	 0.317022	 0.935813	 1.507912	 2.562058	 89.552050	 61.966280	 179.445000	-18.946210	 55.466910	 7.256111	-2.118877	-1.390585	 7.714994	-4.624871	-5.923901	-0.593906	 6.237210	 21.198750	-0.622954	 2.264359	 41.443900	-7.327689	 1.324440	 20.665460	 3.184312
 0.006975	-0.086864	 1.190378	 6.466204	 0.840923	-3.333048	 0.869250	-5.432026	-173.394900	 1.617402	-36.029050	 0.743962	 82.564340	 83.988070	-87.220140	-2.361956	 32.792760	-0.096866	-12.557620	-36.453730	-177.160700	 9.826067	-28.000520	 5.013441	 22.118280	 76.117700	-21.056630	 2.357097	 33.272240	 0.109566	-11.092980	 6.826854	 1.950082	-2.391462	 3.266664	-0.977866	 2.813865	-3.491302	 1.444831	-94.429970	 58.972900	 174.339700	 10.911210	 27.547510	-43.775240	-4.902286	 0.012552	-1.401741	-2.300654	-23.594260	-8.801131	-4.834847	 20.038390	-2.821696	-3.835577	 22.056190	 2.156071	-4.781562	 5.859705	 0.128517	 0.010274	-5.235651	 0.332159	 0.885259	 1.397990	 2.534032	 89.493460	 62.012350	 179.302700	-18.289230	 55.738920	 6.628512	-2.604992	-1.087545	 6.200496	-4.805670	-6.256415	-1.316136	 6.215371	 20.041520	-0.669198	 2.410422	 40.076930	-7.454829	 1.569743	 19.512550	 3.074941
 0.005371	-0.111967	 1.186278	 6.535154	 1.047143	-3.524316	 0.709246	-3.961705	-173.474000	 1.672340	-35.353160	 0.763642	 87.927810	 84.294630	-92.606900	-2.357993	 33.374880	-0.110384	-12.054350	-37.297790	-177.056900	 9.563112	-24.866090	 4.379006	 33.465610	 78.338850	-32.727660	 2.351651	 34.033260	 0.127444	-11.752660	 6.493677	 2.032929	-2.414707	 3.724646	-0.870066	 2.749609	-3.791743	 1.389473	-94.480420	 58.960030	 174.234200	 10.193340	 26.717830	-44.351460	-5.586270	 0.029622	-1.548530	-2.775423	-24.221140	-8.649838	-4.823698	 20.257760	-2.822918	-3.822727	 22.217790	 2.143015	-4.768747	 6.009904	 0.119641	 0.025853	-5.287171	 0.345057	 0.830539	 1.285717	 2.502792	 89.436200	 62.054390	 179.162900	-17.575330	 55.952230	 5.895808	-3.096004	-0.827169	 5.013608	-4.987100	-6.611088	-2.074392	 6.191986	 18.852260	-0.717392	 2.558517	 38.621640	-7.582554	 1.816534	 18.332730	 2.969221
 0.003366	-0.137583	 1.181173	 6.682727	 1.079674	-3.653971	 0.442203	-2.293535	-173.643700	 1.788615	-34.737280	 0.818309	 89.913450	 84.583000	-94.639500	-2.348699	 34.643080	-0.140330	-11.916590	-38.747980	-177.110900	 9.867887	-23.233120	 4.232603	 36.026960	 77.966770	-35.868340	 2.343612	 35.079110	 0.152430	-12.557850	 6.476871	 2.089572	-2.429532	 3.954005	-0.775796	 2.696802	-4.121896	 1.339115	-94.514010	 58.929870	 174.167700	 9.367988	 26.193670	-44.776880	-5.942811	 0.045799	-1.697266	-3.348527	-25.199340	-9.015431	-4.833063	 20.380420	-2.912824	-3.807199	 22.412030	 2.127252	-4.748551	 6.246160	 0.105605	 0.063905	-5.340053	 0.350441	 0.813719	 1.207502	 2.362337	 89.396610	 62.017200	 179.068500	-16.772960	 56.142400	 4.454402	-3.456166	-0.774334	 4.874583	-4.960072	-7.289646	-2.757934	 6.177125	 17.630570	-0.709547	 2.711421	 37.041510	-7.713057	 2.066290	 17.118860	 2.866751
 0.001126	-0.163765	 1.175444	 6.833199	 1.101917	-3.777832	 0.157256	-0.544018	-173.832500	 1.906258	-34.037420	 0.869719	 91.652860	 84.899420	-96.421370	-2.338058	 35.956400	-0.172095	-11.771430	-40.616150	-177.182200	 10.265280	-22.617400	 4.284355	 39.574280	 77.831710	-40.012330	 2.334964	 36.118190	 0.177752	-13.374520	 6.474051	 2.143250	-2.445658	 4.136213	-0.689766	 2.635850	-4.434252	 1.288796	-94.546110	 58.901460	 174.104100	 8.628246	 25.757700	-45.165740	-6.286086	 0.063728	-1.848155	-3.943928	-26.188630	-9.423821	-4.843261	 20.497510	-3.006948	-3.791550	 22.606900	 2.111362	-4.727936	 6.486495	 0.091235	 0.102890	-5.392778	 0.354946	 0.791903	 1.132912	 2.217796	 89.358410	 61.974950	 178.977800	-15.954290	 56.306860	 2.840418	-3.812092	-0.804063	 5.114224	-4.920372	-7.976934	-3.431738	 6.163325	 16.410890	-0.698018	 2.856231	 35.467970	-7.835255	 2.311806	 15.906670	 2.770596
-0.001998	-0.191750	 1.169314	 6.959575	 1.072141	-3.638153	-0.219485	 1.343257	-174.319800	 2.175411	-33.284980	 1.000537	 80.863770	 85.231120	-85.706280	-2.313301	 38.593190	-0.238535	-11.550770	-42.325580	-177.511700	 10.131850	-22.394130	 4.191933	 30.105150	 75.601710	-30.393080	 2.336943	 35.886560	 0.172071	-14.292910	 6.424678	 2.025861	-2.431530	 4.462294	-0.685439	 2.563915	-4.732113	 1.246680	-94.532940	 59.059560	 174.106000	 7.897616	 25.616060	-45.554530	-6.662730	 0.084438	-2.006022	-4.793525	-27.334220	-10.083030	-4.861170	 20.551180	-3.126722	-3.777542	 22.780450	 2.097130	-4.701728	 6.790770	 0.072910	 0.143051	-5.440025	 0.314957	 0.806242	 1.094821	 2.111272	 89.357160	 61.811760	 178.980900	-15.258420	 56.380030	 0.828031	-4.019022	-1.067437	 6.387500	-4.916643	-8.837996	-3.980420	 6.174183	 15.192220	-0.563357	 2.941893	 34.500020	-7.906859	 2.551726	 14.704550	 2.681111
